<svg width="24" height="24" viewBox="0 0 24 24" fill="none" xmlns="http://www.w3.org/2000/svg">
<path d="M18.5 7.00006C15.5 6.5 13 7.50006 11 8.00006L8.5 9.49999L9 12.5L7 10.5L6 11L5.5 12.5L6 15L4.5 14L4 13H3.5L2.5 14.5V17L4.5 19H10.5L13 18H14L16.5 19L19 18.5L20.5 16.5L21 15L21.5 13V12H20.5C20.5 11.8333 20.6 11.2 21 9.99999C21.5 8.49999 20.0596 7.26002 18.5 7.00006Z" fill="#E8FAE8"/>
<path d="M21.9958 12.7409C21.999 12.5507 21.9582 12.3624 21.8766 12.1908C21.7951 12.0191 21.6749 11.8688 21.5257 11.7516C21.3764 11.6344 21.2021 11.5535 21.0165 11.5153C20.8308 11.4771 20.6388 11.4827 20.4557 11.5315C20.3578 11.5696 20.2491 11.5689 20.1516 11.5297C20.0542 11.4905 19.9752 11.4156 19.9306 11.3202C19.8007 11.1101 19.6207 10.9357 19.4069 10.8126C19.1932 10.6896 18.9523 10.6217 18.7059 10.6152C18.8092 10.7546 18.9417 10.8697 19.0941 10.9521C19.245 11.0172 19.3805 11.1135 19.4916 11.2348C19.6028 11.3561 19.6872 11.4997 19.7391 11.656C19.7911 11.8123 19.8095 11.9779 19.7932 12.1419C19.7768 12.3059 19.7261 12.4645 19.6444 12.6075C19.4584 13.0173 19.1966 13.3881 18.8728 13.7C17.9349 14.6037 16.7543 15.2128 15.4761 15.4527C14.7227 15.5886 13.9529 15.608 13.1936 15.5101C13.0141 15.5058 12.8379 15.461 12.6781 15.379C12.5182 15.2971 12.3788 15.1801 12.2701 15.0367C12.1615 14.8934 12.0863 14.7273 12.0503 14.5509C12.0143 14.3744 12.0183 14.1921 12.062 14.0174C12.1535 13.5303 12.2879 13.0522 12.4638 12.5889C12.0123 12.8632 11.675 13.2922 11.5144 13.7967C11.3539 14.3011 11.3808 14.8469 11.5903 15.3329C12.0436 16.1041 12.5259 16.8578 13.0053 17.6339C10.9928 18.4806 8.80213 18.8122 6.63024 18.5988C5.75907 18.5019 4.92918 18.1746 4.2254 17.6504C3.89118 17.428 3.61146 17.1326 3.40726 16.7863C3.20306 16.44 3.07967 16.0518 3.04634 15.6508C3.013 15.2498 3.07058 14.8465 3.21478 14.471C3.35898 14.0955 3.58604 13.7577 3.87893 13.4828C4.09689 13.9566 4.43479 14.3647 4.85895 14.6666C5.28311 14.9685 5.77872 15.1536 6.29639 15.2034C6.11782 14.4059 5.9383 13.6922 5.80049 12.9716C5.67042 12.5281 5.71725 12.0512 5.93111 11.6416C6.14498 11.2321 6.50913 10.922 6.94662 10.7768C7.16984 11.3421 7.54737 11.8328 8.03591 12.1926C8.52445 12.5524 9.10418 12.7667 9.7086 12.811C9.43625 12.284 9.21244 11.7332 9.03994 11.1654C8.88265 10.6802 8.90925 10.1539 9.11466 9.68723C9.65626 9.14468 10.2637 8.67261 10.9227 8.28213C11.2002 9.13025 11.3613 9.93066 12.1358 10.364C11.9135 9.52267 11.7155 8.71934 11.4778 7.92964C11.4332 7.86429 11.3732 7.81106 11.303 7.77469C11.2329 7.73833 11.1549 7.71996 11.076 7.72126C10.1142 7.88874 9.21489 8.31249 8.47221 8.94816C8.38306 9.02872 8.31165 9.12706 8.26252 9.23687C8.21339 9.34669 8.18764 9.46558 8.18689 9.58596C8.29365 10.3649 8.47221 11.1381 8.61293 11.8509C8.08887 11.6055 7.80938 11.2364 7.44836 10.3065C7.39207 10.1673 7.18147 9.98421 7.06016 9.99395C6.48011 10.1333 5.96325 10.4635 5.59196 10.9319C5.22067 11.4002 5.01633 11.9798 5.01149 12.5782C5.10854 13.1547 5.27449 13.7165 5.41327 14.2862C5.09547 14.0437 4.82668 13.7426 4.62135 13.3991C4.44126 13.0277 4.28313 12.646 4.14776 12.2559C3.45242 12.6928 2.89271 13.3161 2.53191 14.0554C2.06662 14.8104 1.89831 15.7122 2.05979 16.585C2.22128 17.4578 2.70099 18.2389 3.40535 18.7761C4.29035 19.566 5.43407 20.0017 6.61859 20C8.75384 19.9911 10.8564 19.4731 12.753 18.4888C13.0088 18.333 13.3064 18.2605 13.605 18.2812C13.9035 18.302 14.1883 18.415 14.4203 18.6047C15.1156 19.1463 15.9704 19.4413 16.8508 19.4434C17.7311 19.4456 18.5873 19.1547 19.2853 18.6164C20.2159 17.7968 20.7922 16.6462 20.8924 15.4079C20.9387 15.1391 21.0621 14.8897 21.2476 14.6903C21.5033 14.4375 21.7024 14.1328 21.8314 13.7966C21.9605 13.4604 22.0165 13.1005 21.9958 12.7409ZM19.6424 17.2463C19.3982 17.6612 19.0603 18.0127 18.6559 18.2725C18.2516 18.5323 17.792 18.6932 17.3143 18.7422C16.8366 18.7912 16.3541 18.7269 15.9057 18.5545C15.4573 18.3821 15.0555 18.1065 14.7328 17.7497C14.3011 17.2852 13.9162 16.779 13.5837 16.2385C14.8914 16.2519 16.1838 15.9556 17.356 15.3738C18.5278 14.8291 19.4814 13.9025 20.0616 12.7447C20.4003 14.2891 20.5731 15.8325 19.6424 17.2492V17.2463ZM20.9477 14.3251C20.773 13.5783 20.6138 12.8976 20.4547 12.217L20.5517 12.0631C20.7895 12.2248 21.134 12.3329 21.2447 12.5578C21.3618 12.8508 21.3966 13.1704 21.3453 13.4818C21.2939 13.7933 21.1584 14.0846 20.9535 14.3241L20.9477 14.3251Z" fill="#5E7360"/>
<path d="M16.9766 12.1907C16.963 12.2169 16.9252 12.2306 16.8213 12.3104C16.8008 12.1643 16.7905 12.0169 16.7903 11.8693C16.8873 11.1423 16.8026 10.4024 16.5437 9.71633C16.2849 9.03029 15.86 8.41962 15.3074 7.93933C14.5497 7.31321 14.0346 6.44049 13.8517 5.47287C13.8058 5.23811 13.8073 4.9965 13.8562 4.76235C13.905 4.52819 14.0002 4.30625 14.136 4.10964C14.2622 3.9519 14.2893 3.96845 14.2806 4.13301C14.264 4.39598 14.264 4.65974 14.2806 4.92271C14.3424 5.30502 14.4916 5.66776 14.7166 5.9825C14.9415 6.29724 15.2361 6.55541 15.5772 6.73677C16.0327 6.99616 16.4315 7.3449 16.7499 7.76221C17.0682 8.17952 17.2996 8.65687 17.4302 9.1658C17.5607 9.67473 17.5879 10.2048 17.51 10.7245C17.432 11.2442 17.2506 11.7428 16.9766 12.1907Z" fill="#5E7360"/>
<path d="M15.4374 14.5792C15.4267 14.6046 15.3869 14.6172 15.2763 14.6971C15.2507 14.519 15.237 14.3394 15.2355 14.1596C15.3218 13.4495 15.233 12.7291 14.977 12.0616C14.7209 11.394 14.3055 10.7997 13.7672 10.3308C13.2123 9.9318 12.7997 9.36463 12.5901 8.71276C12.3805 8.06088 12.3849 7.35871 12.6026 6.70953C12.6647 6.59268 12.6667 6.71732 12.6997 6.72121C12.7261 6.79282 12.7418 6.86797 12.7463 6.9442C12.6982 7.38223 12.7947 7.82398 13.0208 8.20175C13.2469 8.57953 13.5903 8.8725 13.9982 9.03578C16.4312 10.3153 16.1876 12.8801 15.4374 14.5792Z" fill="#5E7360"/>
<path d="M20.8798 10.9306C20.8497 10.9783 20.7827 10.9988 20.6517 11.0786C20.773 10.6025 20.8702 10.1205 20.9428 9.63457C21.0005 9.25432 20.9259 8.86573 20.7314 8.53425C20.537 8.20277 20.2346 7.94864 19.8753 7.81466C19.236 7.57844 18.577 7.39955 17.9062 7.28008C17.6355 7.21971 17.4355 7.18271 17.4336 6.83216C17.4336 6.52057 17.5306 6.39885 17.8451 6.45241C18.7773 6.56892 19.6705 6.89873 20.4556 7.4164C21.825 8.40182 21.594 9.8186 20.8798 10.9306Z" fill="#5E7360"/>
</svg>
