<svg width="24" height="24" viewBox="0 0 24 24" fill="none" xmlns="http://www.w3.org/2000/svg">
<path fill-rule="evenodd" clip-rule="evenodd" d="M8.02252 3.00068H19.1318C19.6273 3.00068 20.1025 3.19663 20.4529 3.54544C20.8032 3.89424 21.0001 4.36732 21.0001 4.8606V17.6901C21.0001 18.5679 20.6498 19.4098 20.0263 20.0305C19.4028 20.6513 18.5571 21 17.6753 21H6.32499C5.88497 21 5.44933 20.9131 5.04331 20.7443C4.6373 20.5754 4.26898 20.328 3.95972 20.0164C3.65046 19.7048 3.4064 19.3352 3.2417 18.929C3.077 18.5228 2.99493 18.0881 3.00024 17.6501V17.2201C2.99573 16.805 3.13795 16.4015 3.40202 16.0802L3.5326 15.9302C3.6133 15.8399 3.70432 15.7594 3.80381 15.6902C4.1115 15.4622 4.48499 15.3395 4.86853 15.3402H14.1798C14.3366 15.3383 14.4927 15.3619 14.6419 15.4102C14.7906 15.4494 14.9327 15.51 15.0637 15.5902C15.3643 15.7399 15.6172 15.9696 15.7946 16.2538C15.9719 16.538 16.0666 16.8656 16.0682 17.2001V17.6501C16.0506 17.8715 16.0793 18.0942 16.1523 18.304C16.2254 18.5139 16.3412 18.7064 16.4927 18.8695C16.6441 19.0327 16.8278 19.1628 17.0322 19.2518C17.2366 19.3409 17.4572 19.3868 17.6803 19.3868C17.9035 19.3868 18.1241 19.3409 18.3285 19.2518C18.5329 19.1628 18.7166 19.0327 18.868 18.8695C19.0195 18.7064 19.1353 18.5139 19.2084 18.304C19.2814 18.0942 19.3101 17.8715 19.2925 17.6501V4.8606C19.2925 4.83959 19.2883 4.81879 19.2803 4.79938C19.2722 4.77997 19.2604 4.76233 19.2454 4.74747C19.2305 4.73261 19.2128 4.72083 19.1933 4.71279C19.1738 4.70475 19.1529 4.70061 19.1318 4.70061H8.02252C7.99834 4.69438 7.97305 4.69385 7.94863 4.69905C7.92422 4.70425 7.90136 4.71504 7.88186 4.73057C7.86236 4.7461 7.84677 4.76593 7.83631 4.7885C7.82586 4.81107 7.82083 4.83576 7.82163 4.8606V13.6703C7.82163 13.8957 7.73167 14.1119 7.57156 14.2713C7.41144 14.4307 7.19428 14.5202 6.96784 14.5202C6.7414 14.5202 6.52424 14.4307 6.36412 14.2713C6.204 14.1119 6.11405 13.8957 6.11405 13.6703V4.8606C6.11261 4.61256 6.1613 4.36677 6.25721 4.13783C6.35312 3.9089 6.49429 3.70151 6.67234 3.52799C6.85039 3.35447 7.06167 3.21837 7.29362 3.12778C7.52557 3.03719 7.77345 2.99397 8.02252 3.00068ZM5.42098 18.9901C5.68941 19.1659 6.00365 19.2598 6.32499 19.26H14.7925C14.7359 19.179 14.6887 19.0918 14.6519 19.0001C14.4459 18.5925 14.3294 18.146 14.3104 17.6901V17.0801H4.78817C4.75428 17.1532 4.73062 17.2306 4.71786 17.3101C4.70255 17.4229 4.70255 17.5373 4.71786 17.6501C4.71932 17.9131 4.78389 18.1719 4.90619 18.405C5.0285 18.638 5.205 18.8387 5.42098 18.9901ZM9.9608 7.94979H10.6438C10.9212 7.94979 11.1461 8.17364 11.1461 8.44977V9.14974C11.1461 9.42587 10.9212 9.64972 10.6438 9.64972H9.9608C9.68343 9.64972 9.45857 9.42587 9.45857 9.14974V8.44977C9.45857 8.17364 9.68343 7.94979 9.9608 7.94979ZM10.6438 11.2197H9.9608C9.68343 11.2197 9.45857 11.4435 9.45857 11.7197V12.4196C9.45857 12.6958 9.68343 12.9196 9.9608 12.9196H10.6438C10.9212 12.9196 11.1461 12.6958 11.1461 12.4196V11.7197C11.1461 11.4435 10.9212 11.2197 10.6438 11.2197ZM17.1729 11.2197H13.356C13.0786 11.2197 12.8538 11.4435 12.8538 11.7197V12.4196C12.8538 12.6958 13.0786 12.9196 13.356 12.9196H17.1729C17.4503 12.9196 17.6751 12.6958 17.6751 12.4196V11.7197C17.6751 11.4435 17.4503 11.2197 17.1729 11.2197ZM17.1729 7.94979H13.356C13.0786 7.94979 12.8538 8.17364 12.8538 8.44977V9.14974C12.8538 9.42587 13.0786 9.64972 13.356 9.64972H17.1729C17.4503 9.64972 17.6751 9.42587 17.6751 9.14974V8.44977C17.6751 8.17364 17.4503 7.94979 17.1729 7.94979Z" fill="#666666"/>
</svg>
