<svg width="24" height="24" viewBox="0 0 24 24" fill="none" xmlns="http://www.w3.org/2000/svg">
<path fill-rule="evenodd" clip-rule="evenodd" d="M7.56203 5.84009C8.588 5.15469 9.79418 4.78893 11.028 4.78909C12.6824 4.78929 14.2689 5.44666 15.4386 6.61659C16.6083 7.78652 17.2655 9.3732 17.2655 11.0276C17.2655 12.2615 16.8996 13.4677 16.2141 14.4937C15.5286 15.5196 14.5543 16.3192 13.4143 16.7914C12.2744 17.2635 11.02 17.387 9.80993 17.1462C8.59981 16.9055 7.48826 16.3112 6.61586 15.4387C5.74346 14.5661 5.14939 13.4544 4.90877 12.2442C4.66816 11.034 4.79181 9.77963 5.26408 8.6397C5.73636 7.49977 6.53605 6.5255 7.56203 5.84009ZM11.0282 3C9.44056 2.9998 7.88848 3.47044 6.56828 4.35241C5.24807 5.23438 4.21905 6.48805 3.61133 7.95489C3.00361 9.42173 2.8445 11.0359 3.15412 12.5931C3.46374 14.1504 4.22818 15.5809 5.35077 16.7037C6.47336 17.8265 7.90367 18.5911 9.46083 18.9009C11.018 19.2108 12.632 19.0519 14.0989 18.4443C14.7697 18.1664 15.396 17.8005 15.9625 17.3588L19.4852 20.7499C19.8411 21.0926 20.4073 21.0818 20.7499 20.7258C21.0925 20.3699 21.0818 19.8036 20.7258 19.461L17.2426 16.1078C17.405 15.9091 17.5582 15.7022 17.7016 15.4876C18.5836 14.1675 19.0545 12.6154 19.0545 11.0276C19.0545 8.89875 18.2089 6.85704 16.7037 5.35159C15.1985 3.84615 13.157 3.00027 11.0282 3Z" fill="#666666"/>
</svg>
